<mxfile host="app.diagrams.net" modified="2024-05-03T17:58:51.169Z" agent="Mozilla/5.0 (Windows NT 10.0; Win64; x64) AppleWebKit/537.36 (KHTML, like Gecko) Chrome/124.0.0.0 Safari/537.36 Edg/124.0.0.0" etag="SDi96wd5XYmlOi5JKs84" version="24.3.1" type="device">
  <diagram name="Página-1" id="ExxBHF5NHdvrhhBzo6mQ">
    <mxGraphModel dx="1594" dy="900" grid="1" gridSize="10" guides="1" tooltips="1" connect="1" arrows="1" fold="1" page="1" pageScale="1" pageWidth="827" pageHeight="1169" math="0" shadow="0">
      <root>
        <mxCell id="0" />
        <mxCell id="1" parent="0" />
        <mxCell id="-iR7gPRzz455hFXw95BV-45" value="" style="rounded=1;whiteSpace=wrap;html=1;" vertex="1" parent="1">
          <mxGeometry x="440" y="180" width="640" height="850" as="geometry" />
        </mxCell>
        <mxCell id="-iR7gPRzz455hFXw95BV-2" value="Aplicación web de ventas online" style="text;html=1;align=center;verticalAlign=middle;whiteSpace=wrap;rounded=0;" vertex="1" parent="1">
          <mxGeometry x="470" y="210" width="200" height="30" as="geometry" />
        </mxCell>
        <mxCell id="-iR7gPRzz455hFXw95BV-40" style="edgeStyle=orthogonalEdgeStyle;rounded=0;orthogonalLoop=1;jettySize=auto;html=1;exitX=0.5;exitY=0.5;exitDx=0;exitDy=0;exitPerimeter=0;" edge="1" parent="1" source="-iR7gPRzz455hFXw95BV-3" target="-iR7gPRzz455hFXw95BV-37">
          <mxGeometry relative="1" as="geometry">
            <mxPoint x="340" y="359.9999999999998" as="sourcePoint" />
            <Array as="points">
              <mxPoint x="375" y="360" />
              <mxPoint x="455" y="360" />
              <mxPoint x="455" y="340" />
            </Array>
          </mxGeometry>
        </mxCell>
        <mxCell id="-iR7gPRzz455hFXw95BV-41" style="edgeStyle=orthogonalEdgeStyle;rounded=0;orthogonalLoop=1;jettySize=auto;html=1;entryX=0;entryY=0.5;entryDx=0;entryDy=0;" edge="1" parent="1" source="-iR7gPRzz455hFXw95BV-3" target="-iR7gPRzz455hFXw95BV-38">
          <mxGeometry relative="1" as="geometry">
            <mxPoint x="340" y="359.9999999999998" as="sourcePoint" />
            <Array as="points">
              <mxPoint x="455" y="360" />
              <mxPoint x="455" y="460" />
            </Array>
          </mxGeometry>
        </mxCell>
        <mxCell id="-iR7gPRzz455hFXw95BV-3" value="Admin" style="shape=umlActor;verticalLabelPosition=bottom;verticalAlign=top;html=1;outlineConnect=0;" vertex="1" parent="1">
          <mxGeometry x="360" y="320" width="30" height="60" as="geometry" />
        </mxCell>
        <mxCell id="-iR7gPRzz455hFXw95BV-36" style="edgeStyle=orthogonalEdgeStyle;rounded=0;orthogonalLoop=1;jettySize=auto;html=1;exitX=0.5;exitY=0.5;exitDx=0;exitDy=0;exitPerimeter=0;entryX=1;entryY=0.5;entryDx=0;entryDy=0;" edge="1" parent="1" source="-iR7gPRzz455hFXw95BV-5" target="-iR7gPRzz455hFXw95BV-35">
          <mxGeometry relative="1" as="geometry" />
        </mxCell>
        <mxCell id="-iR7gPRzz455hFXw95BV-43" style="edgeStyle=orthogonalEdgeStyle;rounded=0;orthogonalLoop=1;jettySize=auto;html=1;exitX=0.5;exitY=0.5;exitDx=0;exitDy=0;exitPerimeter=0;entryX=0.5;entryY=0;entryDx=0;entryDy=0;" edge="1" parent="1" source="-iR7gPRzz455hFXw95BV-5" target="-iR7gPRzz455hFXw95BV-9">
          <mxGeometry relative="1" as="geometry" />
        </mxCell>
        <mxCell id="-iR7gPRzz455hFXw95BV-5" value="Clientes" style="shape=umlActor;verticalLabelPosition=bottom;verticalAlign=top;html=1;outlineConnect=0;" vertex="1" parent="1">
          <mxGeometry x="1100" y="350" width="30" height="60" as="geometry" />
        </mxCell>
        <mxCell id="-iR7gPRzz455hFXw95BV-30" style="edgeStyle=orthogonalEdgeStyle;rounded=0;orthogonalLoop=1;jettySize=auto;html=1;exitX=0.5;exitY=0.5;exitDx=0;exitDy=0;exitPerimeter=0;entryX=1;entryY=0.5;entryDx=0;entryDy=0;" edge="1" parent="1" source="-iR7gPRzz455hFXw95BV-6" target="-iR7gPRzz455hFXw95BV-8">
          <mxGeometry relative="1" as="geometry" />
        </mxCell>
        <mxCell id="-iR7gPRzz455hFXw95BV-31" style="edgeStyle=orthogonalEdgeStyle;rounded=0;orthogonalLoop=1;jettySize=auto;html=1;exitX=0.5;exitY=0.5;exitDx=0;exitDy=0;exitPerimeter=0;entryX=1;entryY=0.5;entryDx=0;entryDy=0;" edge="1" parent="1" source="-iR7gPRzz455hFXw95BV-6" target="-iR7gPRzz455hFXw95BV-9">
          <mxGeometry relative="1" as="geometry" />
        </mxCell>
        <mxCell id="-iR7gPRzz455hFXw95BV-6" value="No registrados" style="shape=umlActor;verticalLabelPosition=bottom;verticalAlign=top;html=1;outlineConnect=0;" vertex="1" parent="1">
          <mxGeometry x="1110" y="720" width="30" height="60" as="geometry" />
        </mxCell>
        <mxCell id="-iR7gPRzz455hFXw95BV-8" value="Registrarse" style="ellipse;whiteSpace=wrap;html=1;" vertex="1" parent="1">
          <mxGeometry x="860" y="770" width="120" height="80" as="geometry" />
        </mxCell>
        <mxCell id="-iR7gPRzz455hFXw95BV-17" style="edgeStyle=orthogonalEdgeStyle;rounded=0;orthogonalLoop=1;jettySize=auto;html=1;exitX=0;exitY=0.5;exitDx=0;exitDy=0;entryX=1;entryY=0.5;entryDx=0;entryDy=0;startArrow=none;startFill=0;dashed=1;endArrow=none;endFill=0;" edge="1" parent="1" source="-iR7gPRzz455hFXw95BV-9" target="-iR7gPRzz455hFXw95BV-12">
          <mxGeometry relative="1" as="geometry" />
        </mxCell>
        <mxCell id="-iR7gPRzz455hFXw95BV-18" style="edgeStyle=orthogonalEdgeStyle;rounded=0;orthogonalLoop=1;jettySize=auto;html=1;exitX=0;exitY=0.5;exitDx=0;exitDy=0;entryX=1;entryY=0.5;entryDx=0;entryDy=0;dashed=1;endArrow=none;endFill=0;" edge="1" parent="1" source="-iR7gPRzz455hFXw95BV-9" target="-iR7gPRzz455hFXw95BV-11">
          <mxGeometry relative="1" as="geometry" />
        </mxCell>
        <mxCell id="-iR7gPRzz455hFXw95BV-19" style="edgeStyle=orthogonalEdgeStyle;rounded=0;orthogonalLoop=1;jettySize=auto;html=1;exitX=0;exitY=0.5;exitDx=0;exitDy=0;entryX=1;entryY=0.5;entryDx=0;entryDy=0;startArrow=classicThin;startFill=1;dashed=1;endArrow=none;endFill=0;" edge="1" parent="1" source="-iR7gPRzz455hFXw95BV-9" target="-iR7gPRzz455hFXw95BV-10">
          <mxGeometry relative="1" as="geometry" />
        </mxCell>
        <mxCell id="-iR7gPRzz455hFXw95BV-9" value="Ver productos" style="ellipse;whiteSpace=wrap;html=1;" vertex="1" parent="1">
          <mxGeometry x="860" y="635" width="120" height="80" as="geometry" />
        </mxCell>
        <mxCell id="-iR7gPRzz455hFXw95BV-10" value="Ordenar Categoria" style="ellipse;whiteSpace=wrap;html=1;" vertex="1" parent="1">
          <mxGeometry x="660" y="640" width="90" height="40" as="geometry" />
        </mxCell>
        <mxCell id="-iR7gPRzz455hFXw95BV-26" style="edgeStyle=orthogonalEdgeStyle;rounded=0;orthogonalLoop=1;jettySize=auto;html=1;exitX=0.5;exitY=1;exitDx=0;exitDy=0;entryX=0.5;entryY=0;entryDx=0;entryDy=0;dashed=1;endArrow=none;endFill=0;startArrow=classic;startFill=1;" edge="1" parent="1" source="-iR7gPRzz455hFXw95BV-11" target="-iR7gPRzz455hFXw95BV-25">
          <mxGeometry relative="1" as="geometry" />
        </mxCell>
        <mxCell id="-iR7gPRzz455hFXw95BV-11" value="Agregar a carrito" style="ellipse;whiteSpace=wrap;html=1;" vertex="1" parent="1">
          <mxGeometry x="660" y="740" width="90" height="50" as="geometry" />
        </mxCell>
        <mxCell id="-iR7gPRzz455hFXw95BV-12" value="Buscar Producto" style="ellipse;whiteSpace=wrap;html=1;" vertex="1" parent="1">
          <mxGeometry x="660" y="550" width="90" height="50" as="geometry" />
        </mxCell>
        <mxCell id="-iR7gPRzz455hFXw95BV-21" value="&lt;font style=&quot;font-size: 8px;&quot;&gt;&amp;lt;&amp;lt;extend&amp;gt;&amp;gt;&lt;/font&gt;" style="text;html=1;align=center;verticalAlign=middle;whiteSpace=wrap;rounded=0;rotation=90;" vertex="1" parent="1">
          <mxGeometry x="790" y="590" width="60" height="30" as="geometry" />
        </mxCell>
        <mxCell id="-iR7gPRzz455hFXw95BV-22" value="&lt;font style=&quot;font-size: 8px;&quot;&gt;&amp;lt;&amp;lt;extend&amp;gt;&amp;gt;&lt;/font&gt;" style="text;html=1;align=center;verticalAlign=middle;whiteSpace=wrap;rounded=0;rotation=90;" vertex="1" parent="1">
          <mxGeometry x="790" y="700" width="60" height="30" as="geometry" />
        </mxCell>
        <mxCell id="-iR7gPRzz455hFXw95BV-23" value="&lt;font style=&quot;font-size: 8px;&quot;&gt;&amp;lt;&amp;lt;extend&amp;gt;&amp;gt;&lt;/font&gt;" style="text;html=1;align=center;verticalAlign=middle;whiteSpace=wrap;rounded=0;rotation=0;" vertex="1" parent="1">
          <mxGeometry x="760" y="635" width="40" height="20" as="geometry" />
        </mxCell>
        <mxCell id="-iR7gPRzz455hFXw95BV-28" style="edgeStyle=orthogonalEdgeStyle;rounded=0;orthogonalLoop=1;jettySize=auto;html=1;exitX=1;exitY=0.5;exitDx=0;exitDy=0;entryX=0;entryY=0.5;entryDx=0;entryDy=0;dashed=1;endArrow=classic;endFill=1;" edge="1" parent="1" source="-iR7gPRzz455hFXw95BV-25" target="-iR7gPRzz455hFXw95BV-8">
          <mxGeometry relative="1" as="geometry" />
        </mxCell>
        <mxCell id="-iR7gPRzz455hFXw95BV-25" value="Confirmar compra" style="ellipse;whiteSpace=wrap;html=1;" vertex="1" parent="1">
          <mxGeometry x="645" y="900" width="120" height="80" as="geometry" />
        </mxCell>
        <mxCell id="-iR7gPRzz455hFXw95BV-27" value="&lt;font style=&quot;font-size: 8px;&quot;&gt;&amp;lt;&amp;lt;extend&amp;gt;&amp;gt;&lt;/font&gt;" style="text;html=1;align=center;verticalAlign=middle;whiteSpace=wrap;rounded=0;rotation=90;" vertex="1" parent="1">
          <mxGeometry x="700" y="830" width="60" height="30" as="geometry" />
        </mxCell>
        <mxCell id="-iR7gPRzz455hFXw95BV-29" value="&lt;font style=&quot;font-size: 8px;&quot;&gt;&amp;lt;&amp;lt;includes&amp;gt;&amp;gt;&lt;/font&gt;" style="text;html=1;align=center;verticalAlign=middle;whiteSpace=wrap;rounded=0;rotation=90;" vertex="1" parent="1">
          <mxGeometry x="800" y="850" width="60" height="30" as="geometry" />
        </mxCell>
        <mxCell id="-iR7gPRzz455hFXw95BV-35" value="Modificar Datos" style="ellipse;whiteSpace=wrap;html=1;" vertex="1" parent="1">
          <mxGeometry x="860" y="220" width="120" height="80" as="geometry" />
        </mxCell>
        <mxCell id="-iR7gPRzz455hFXw95BV-37" value="Dar Alta productos" style="ellipse;whiteSpace=wrap;html=1;" vertex="1" parent="1">
          <mxGeometry x="495" y="300" width="120" height="80" as="geometry" />
        </mxCell>
        <mxCell id="-iR7gPRzz455hFXw95BV-38" value="Modificar productos" style="ellipse;whiteSpace=wrap;html=1;" vertex="1" parent="1">
          <mxGeometry x="495" y="420" width="120" height="80" as="geometry" />
        </mxCell>
        <mxCell id="-iR7gPRzz455hFXw95BV-39" value="Gestionar compra clientes" style="ellipse;whiteSpace=wrap;html=1;" vertex="1" parent="1">
          <mxGeometry x="495" y="530" width="120" height="80" as="geometry" />
        </mxCell>
        <mxCell id="-iR7gPRzz455hFXw95BV-42" style="edgeStyle=orthogonalEdgeStyle;rounded=0;orthogonalLoop=1;jettySize=auto;html=1;entryX=-0.002;entryY=0.408;entryDx=0;entryDy=0;entryPerimeter=0;" edge="1" parent="1" source="-iR7gPRzz455hFXw95BV-3" target="-iR7gPRzz455hFXw95BV-39">
          <mxGeometry relative="1" as="geometry">
            <mxPoint x="340" y="360" as="sourcePoint" />
            <Array as="points">
              <mxPoint x="455" y="360" />
              <mxPoint x="455" y="563" />
            </Array>
          </mxGeometry>
        </mxCell>
      </root>
    </mxGraphModel>
  </diagram>
</mxfile>
